<svg width="1530" height="422" viewBox="0 0 1530 422" fill="none" xmlns="http://www.w3.org/2000/svg">
<g filter="url(#filter0_d_771_3371)">
<path d="M362.061 318.396L310.71 362.259V209.561L362.061 169.319V318.396ZM208.461 295.632L289.931 227.618V288.692L208.461 358.095L109.909 274.811V362.258L53.4062 310.901V165.155L208.461 295.632ZM361.782 132.952L251.017 227.062L250.946 227.015L208.461 265.095L53.4062 133.229V59.6626L210.749 191.748L363.45 59.6626L361.782 132.952Z" fill="white"/>
<path d="M362.066 318.396L363.843 320.475L364.8 319.657V318.396H362.066ZM310.715 362.259H307.98V368.192L312.491 364.338L310.715 362.259ZM310.715 209.56L309.028 207.408L307.98 208.229V209.56H310.715ZM362.066 169.319H364.8V163.701L360.381 167.166L362.066 169.319ZM208.466 295.632L206.705 297.724L208.459 299.201L210.218 297.731L208.466 295.632ZM289.935 227.617H292.67V221.771L288.183 225.518L289.935 227.617ZM289.935 288.692L291.709 290.773L292.67 289.955V288.692H289.935ZM208.466 358.095L206.701 360.184L208.473 361.681L210.239 360.176L208.466 358.095ZM109.914 274.811L111.679 272.722L107.179 268.919V274.811H109.914ZM109.914 362.258L108.074 364.282L112.649 368.44V362.258H109.914ZM53.4107 310.901H50.6758V312.111L51.5712 312.924L53.4107 310.901ZM53.4107 165.155L55.172 163.062L50.6758 159.279V165.155H53.4107ZM361.787 132.952L363.559 135.036L364.494 134.241L364.522 133.014L361.787 132.952ZM251.021 227.062L249.504 229.338L251.221 230.481L252.792 229.146L251.021 227.062ZM250.951 227.015L252.468 224.739L250.704 223.563L249.126 224.978L250.951 227.015ZM208.466 265.095L206.694 267.178L208.513 268.725L210.291 267.131L208.466 265.095ZM53.4107 133.229H50.6758V134.493L51.639 135.312L53.4107 133.229ZM53.4107 59.6624L55.1692 57.5678L50.6758 53.7957V59.6624H53.4107ZM210.753 191.748L208.995 193.842L210.78 195.341L212.543 193.816L210.753 191.748ZM363.455 59.6624L366.19 59.7246L366.327 53.5601L361.666 57.594L363.455 59.6624ZM362.066 318.396L360.288 316.316L308.938 360.179L310.715 362.259L312.491 364.338L363.843 320.475L362.066 318.396ZM310.715 362.259H313.449V209.56H310.715H307.98V362.259H310.715ZM310.715 209.56L312.402 211.713L363.75 171.471L362.066 169.319L360.381 167.166L309.028 207.408L310.715 209.56ZM362.066 169.319H359.331V318.396H362.066H364.8V169.319H362.066ZM208.466 295.632L210.218 297.731L291.688 229.717L289.935 227.617L288.183 225.518L206.713 293.532L208.466 295.632ZM289.935 227.617H287.2V288.692H289.935H292.67V227.617H289.935ZM289.935 288.692L288.162 286.61L206.692 356.013L208.466 358.095L210.239 360.176L291.709 290.773L289.935 288.692ZM208.466 358.095L210.231 356.006L111.679 272.722L109.914 274.811L108.149 276.9L206.701 360.184L208.466 358.095ZM109.914 274.811H107.179V362.258H109.914H112.649V274.811H109.914ZM109.914 362.258L111.753 360.234L55.2502 308.877L53.4107 310.901L51.5712 312.924L108.074 364.282L109.914 362.258ZM53.4107 310.901H56.1456V165.155H53.4107H50.6758V310.901H53.4107ZM53.4107 165.155L51.65 167.247L206.705 297.724L208.466 295.632L210.227 293.539L55.172 163.062L53.4107 165.155ZM361.787 132.952L360.02 130.868L249.25 224.978L251.021 227.062L252.792 229.146L363.559 135.036L361.787 132.952ZM251.021 227.062L252.538 224.786L252.468 224.739L250.951 227.015L249.434 229.291L249.504 229.338L251.021 227.062ZM250.951 227.015L249.126 224.978L206.641 263.058L208.466 265.095L210.291 267.131L252.776 229.052L250.951 227.015ZM208.466 265.095L210.238 263.011L55.1823 131.146L53.4107 133.229L51.639 135.312L206.694 267.178L208.466 265.095ZM53.4107 133.229H56.1456V59.6624H53.4107H50.6758V133.229H53.4107ZM53.4107 59.6624L51.6521 61.7571L208.995 193.842L210.753 191.748L212.512 189.653L55.1692 57.5678L53.4107 59.6624ZM210.753 191.748L212.543 193.816L365.243 61.7308L363.455 59.6624L361.666 57.594L208.964 189.679L210.753 191.748ZM363.455 59.6624L360.72 59.6003L359.052 132.89L361.787 132.952L364.522 133.014L366.19 59.7246L363.455 59.6624Z" fill="white"/>
</g>
<path d="M477.859 273.417H456.324V146.5H477.859L518.844 247.547L559.829 146.5H581.711V273.417H560.176V234.352C560.176 208.83 560.176 201.364 561.392 192.336L529.09 273.417H508.597L476.469 192.509C477.685 200.149 477.859 212.129 477.859 227.928V273.417ZM627.696 273.417H604.599L650.446 146.5H673.196L719.044 273.417H695.599L685.353 244.075H637.942L627.696 273.417ZM658.956 184.349L644.542 225.324H678.927L664.339 184.349C663.297 181.05 662.082 177.231 661.734 174.626C661.213 177.057 660.171 180.877 658.956 184.349ZM759.025 273.417L711.094 146.5H734.712L762.499 219.594C765.277 227.234 767.709 234.699 770.487 244.943C773.613 233.831 776.218 226.018 778.649 219.594L806.089 146.5H829.186L781.949 273.417H759.025ZM930.814 273.417H851.97V146.5H930.814V166.987H874.199V199.628H924.909V219.247H874.199V252.929H930.814V273.417ZM984.09 146.5V252.929H1037.23V273.417H961.861V146.5H984.09ZM1084.48 146.5V252.929H1137.62V273.417H1062.25V146.5H1084.48ZM1184.88 146.5V273.417H1162.65V146.5H1184.88ZM1219.1 227.06V146.5H1241.33V225.671C1241.33 243.901 1251.22 253.971 1269.29 253.971C1287.34 253.971 1297.42 243.727 1297.42 225.671V146.5H1319.64V227.06C1319.64 256.749 1300.19 275.5 1269.29 275.5C1238.55 275.5 1219.1 256.923 1219.1 227.06ZM1375.47 273.417H1353.94V146.5H1375.47L1416.46 247.547L1457.44 146.5H1479.32V273.417H1457.79V234.352C1457.79 208.83 1457.79 201.364 1459.01 192.336L1426.7 273.417H1406.21L1374.08 192.509C1375.3 200.149 1375.47 212.129 1375.47 227.928V273.417Z" fill="white"/>
<defs>
<filter id="filter0_d_771_3371" x="40.6758" y="47.5601" width="335.652" height="334.88" filterUnits="userSpaceOnUse" color-interpolation-filters="sRGB">
<feFlood flood-opacity="0" result="BackgroundImageFix"/>
<feColorMatrix in="SourceAlpha" type="matrix" values="0 0 0 0 0 0 0 0 0 0 0 0 0 0 0 0 0 0 127 0" result="hardAlpha"/>
<feOffset dy="4"/>
<feGaussianBlur stdDeviation="5"/>
<feComposite in2="hardAlpha" operator="out"/>
<feColorMatrix type="matrix" values="0 0 0 0 0 0 0 0 0 0 0 0 0 0 0 0 0 0 0.3 0"/>
<feBlend mode="normal" in2="BackgroundImageFix" result="effect1_dropShadow_771_3371"/>
<feBlend mode="normal" in="SourceGraphic" in2="effect1_dropShadow_771_3371" result="shape"/>
</filter>
</defs>
</svg>
